<?xml version="1.0" encoding="UTF-8"?>
<svg width="661px" height="93px" viewBox="0 0 661 93" version="1.1" xmlns="http://www.w3.org/2000/svg" xmlns:xlink="http://www.w3.org/1999/xlink">
    <!-- Generator: Sketch 53 (72520) - https://sketchapp.com -->
    <title>Group 11 Copy</title>
    <desc>Created with Sketch.</desc>
    <defs>
        <rect id="path-1" x="0" y="0" width="653" height="85" rx="10"></rect>
        <filter x="-1.1%" y="-5.9%" width="102.1%" height="116.5%" filterUnits="objectBoundingBox" id="filter-2">
            <feOffset dx="0" dy="2" in="SourceAlpha" result="shadowOffsetOuter1"></feOffset>
            <feGaussianBlur stdDeviation="2" in="shadowOffsetOuter1" result="shadowBlurOuter1"></feGaussianBlur>
            <feColorMatrix values="0 0 0 0 0   0 0 0 0 0   0 0 0 0 0  0 0 0 0.0676081731 0" type="matrix" in="shadowBlurOuter1"></feColorMatrix>
        </filter>
    </defs>
    <g id="Landing-page" stroke="none" stroke-width="1" fill="none" fill-rule="evenodd">
        <g id="Artboard-Copy-2" transform="translate(-390.000000, -3961.000000)">
            <g id="section-4" transform="translate(40.000000, 3454.000000)">
                <g id="Group-11-Copy" transform="translate(354.000000, 509.000000)">
                    <g id="Rectangle">
                        <use fill="black" fill-opacity="1" filter="url(#filter-2)" xlink:href="#path-1"></use>
                        <use fill="#FFFFFF" fill-rule="evenodd" xlink:href="#path-1"></use>
                    </g>
                    <text id="🎉❤️" font-family="Poppins-Regular, Poppins" font-size="20" font-weight="normal" letter-spacing="0.3571429" fill="#000000">
                        <tspan x="522.494286" y="50"> </tspan>
                        <tspan x="527.791429" y="50" font-family="AppleColorEmoji, Apple Color Emoji">🎉❤️</tspan>
                    </text>
                    <rect id="Rectangle" fill="#49BBF6" opacity="0.15" x="190" y="29" width="175" height="30" rx="3"></rect>
                    <g id="/thanksy-thanks-@tha" transform="translate(25.719999, 31.160000)" fill-rule="nonzero">
                        <path d="M7.24,-1.95399252e-14 L1.76,22.26 L8.52651283e-14,22.26 L5.46,-1.95399252e-14 L7.24,-1.95399252e-14 Z M14.3771429,17.24 L14.3771429,18.84 L13.0171429,18.84 C11.8971373,18.84 11.060479,18.573336 10.5071429,18.04 C9.9538068,17.506664 9.6771429,16.6133396 9.6771429,15.36 L9.6771429,9.44 L8.0371429,9.44 L8.0371429,7.86 L9.6771429,7.86 L9.6771429,5.12 L11.5171429,5.12 L11.5171429,7.86 L14.3571429,7.86 L14.3571429,9.44 L11.5171429,9.44 L11.5171429,15.4 C11.5171429,16.1066702 11.6471416,16.5899987 11.9071429,16.85 C12.1671442,17.1100013 12.6171397,17.24 13.2571429,17.24 L14.3771429,17.24 Z M22.7342858,7.68 C24.0142922,7.68 25.0476152,8.0899959 25.8342858,8.91 C26.6209564,9.7300041 27.0142858,10.9133256 27.0142858,12.46 L27.0142858,18.84 L25.1942858,18.84 L25.1942858,12.62 C25.1942858,11.5266612 24.9142886,10.6866696 24.3542858,10.1 C23.794283,9.5133304 23.0342906,9.22 22.0742858,9.22 C21.0742808,9.22 20.2742888,9.5433301 19.6742858,10.19 C19.0742828,10.8366699 18.7742858,11.7799938 18.7742858,13.02 L18.7742858,18.84 L16.9542858,18.84 L16.9542858,4.04 L18.7742858,4.04 L18.7742858,10.46 C19.0542872,9.5666622 19.5509489,8.8800024 20.2642858,8.4 C20.9776227,7.9199976 21.8009478,7.68 22.7342858,7.68 Z M34.6714287,7.72 C35.7381007,7.72 36.641425,7.986664 37.3814287,8.52 C38.1214324,9.053336 38.6380939,9.7666622 38.9314287,10.66 L38.9314287,7.86 L40.7514287,7.86 L40.7514287,18.84 L38.9314287,18.84 L38.9314287,16.04 C38.6380939,16.9333378 38.1214324,17.646664 37.3814287,18.18 C36.641425,18.713336 35.7381007,18.98 34.6714287,18.98 C33.6980905,18.98 32.8314325,18.7533356 32.0714287,18.3 C31.3114249,17.8466644 30.7147642,17.1966709 30.2814287,16.35 C29.8480932,15.5033291 29.6314287,14.5066724 29.6314287,13.36 C29.6314287,12.2133276 29.8480932,11.2133376 30.2814287,10.36 C30.7147642,9.5066624 31.3114249,8.8533356 32.0714287,8.4 C32.8314325,7.9466644 33.6980905,7.72 34.6714287,7.72 Z M35.1914287,9.34 C34.0714231,9.34 33.1747654,9.6966631 32.5014287,10.41 C31.828092,11.1233369 31.4914287,12.1066604 31.4914287,13.36 C31.4914287,14.6133396 31.828092,15.5966631 32.5014287,16.31 C33.1747654,17.0233369 34.0714231,17.38 35.1914287,17.38 C35.9114323,17.38 36.5547592,17.213335 37.1214287,16.88 C37.6880982,16.546665 38.1314271,16.0766697 38.4514287,15.47 C38.7714303,14.8633303 38.9314287,14.160004 38.9314287,13.36 C38.9314287,12.559996 38.7714303,11.8533364 38.4514287,11.24 C38.1314271,10.6266636 37.6880982,10.1566683 37.1214287,9.83 C36.5547592,9.5033317 35.9114323,9.34 35.1914287,9.34 Z M49.7885716,7.68 C51.068578,7.68 52.101901,8.0899959 52.8885716,8.91 C53.6752422,9.7300041 54.0685716,10.9133256 54.0685716,12.46 L54.0685716,18.84 L52.2485716,18.84 L52.2485716,12.62 C52.2485716,11.5266612 51.9685744,10.6866696 51.4085716,10.1 C50.8485688,9.5133304 50.0885764,9.22 49.1285716,9.22 C48.1285666,9.22 47.3285746,9.5433301 46.7285716,10.19 C46.1285686,10.8366699 45.8285716,11.7799938 45.8285716,13.02 L45.8285716,18.84 L44.0085716,18.84 L44.0085716,7.86 L45.8285716,7.86 L45.8285716,10.46 C46.108573,9.5666622 46.6052347,8.8800024 47.3185716,8.4 C48.0319085,7.9199976 48.8552336,7.68 49.7885716,7.68 Z M63.2457145,18.84 L59.0457145,13.9 L59.0457145,18.84 L57.2257145,18.84 L57.2257145,4.04 L59.0457145,4.04 L59.0457145,12.64 L63.1857145,7.86 L65.4057145,7.86 L60.4857145,13.32 L65.5257145,18.84 L63.2457145,18.84 Z M70.9228574,7.72 C72.1628636,7.72 73.1595203,8.0433301 73.9128574,8.69 C74.6661945,9.3366699 75.1228566,10.2066612 75.2828574,11.3 L73.5428574,11.3 C73.462857,10.6466634 73.1928597,10.1100021 72.7328574,9.69 C72.2728551,9.2699979 71.6561946,9.06 70.8828574,9.06 C70.2295208,9.06 69.7195259,9.2166651 69.3528574,9.53 C68.9861889,9.8433349 68.8028574,10.266664 68.8028574,10.8 C68.8028574,11.200002 68.9261895,11.5233321 69.1728574,11.77 C69.4195253,12.0166679 69.7261889,12.2033327 70.0928574,12.33 C70.4595259,12.4566673 70.9628542,12.5933326 71.6028574,12.74 C72.4161948,12.9266676 73.0728549,13.1166657 73.5728574,13.31 C74.0728599,13.5033343 74.4995223,13.8133312 74.8528574,14.24 C75.2061925,14.6666688 75.3828574,15.2399964 75.3828574,15.96 C75.3828574,16.8533378 75.0461941,17.5799972 74.3728574,18.14 C73.6995207,18.7000028 72.802863,18.98 71.6828574,18.98 C70.3761842,18.98 69.3095282,18.6666698 68.4828574,18.04 C67.6561866,17.4133302 67.1695248,16.5400056 67.0228574,15.42 L68.7828574,15.42 C68.8495244,16.08667 69.1395215,16.6266646 69.6528574,17.04 C70.1661933,17.4533354 70.8428532,17.66 71.6828574,17.66 C72.3095272,17.66 72.7995223,17.5000016 73.1528574,17.18 C73.5061925,16.8599984 73.6828574,16.4400026 73.6828574,15.92 C73.6828574,15.4933312 73.556192,15.1533346 73.3028574,14.9 C73.0495228,14.6466654 72.7361926,14.453334 72.3628574,14.32 C71.9895222,14.186666 71.476194,14.0466674 70.8228574,13.9 C70.00952,13.7133324 69.3595265,13.5266676 68.8728574,13.34 C68.3861883,13.1533324 67.9728591,12.8566687 67.6328574,12.45 C67.2928557,12.0433313 67.1228574,11.4933368 67.1228574,10.8 C67.1228574,9.8799954 67.462854,9.1366695 68.1428574,8.57 C68.8228608,8.0033305 69.7495182,7.72 70.9228574,7.72 Z M78.9400003,7.86 L82.5000003,16.5 L85.8000003,7.86 L87.8200003,7.86 L81.3000003,24.04 L79.2400003,24.04 L81.5200003,18.66 L76.9000003,7.86 L78.9400003,7.86 Z" id="/thanksy" fill="#A6A6A6"></path>
                        <path d="M100.374286,17.24 L100.374286,18.84 L99.0142861,18.84 C97.8942805,18.84 97.0576222,18.573336 96.5042861,18.04 C95.95095,17.506664 95.6742861,16.6133396 95.6742861,15.36 L95.6742861,9.44 L94.0342861,9.44 L94.0342861,7.86 L95.6742861,7.86 L95.6742861,5.12 L97.5142861,5.12 L97.5142861,7.86 L100.354286,7.86 L100.354286,9.44 L97.5142861,9.44 L97.5142861,15.4 C97.5142861,16.1066702 97.6442848,16.5899987 97.9042861,16.85 C98.1642874,17.1100013 98.6142829,17.24 99.2542861,17.24 L100.374286,17.24 Z M108.731429,7.68 C110.011435,7.68 111.044758,8.0899959 111.831429,8.91 C112.6181,9.7300041 113.011429,10.9133256 113.011429,12.46 L113.011429,18.84 L111.191429,18.84 L111.191429,12.62 C111.191429,11.5266612 110.911432,10.6866696 110.351429,10.1 C109.791426,9.5133304 109.031434,9.22 108.071429,9.22 C107.071424,9.22 106.271432,9.5433301 105.671429,10.19 C105.071426,10.8366699 104.771429,11.7799938 104.771429,13.02 L104.771429,18.84 L102.951429,18.84 L102.951429,4.04 L104.771429,4.04 L104.771429,10.46 C105.05143,9.5666622 105.548092,8.8800024 106.261429,8.4 C106.974766,7.9199976 107.798091,7.68 108.731429,7.68 Z M120.668572,7.72 C121.735244,7.72 122.638568,7.986664 123.378572,8.52 C124.118576,9.053336 124.635237,9.7666622 124.928572,10.66 L124.928572,7.86 L126.748572,7.86 L126.748572,18.84 L124.928572,18.84 L124.928572,16.04 C124.635237,16.9333378 124.118576,17.646664 123.378572,18.18 C122.638568,18.713336 121.735244,18.98 120.668572,18.98 C119.695234,18.98 118.828576,18.7533356 118.068572,18.3 C117.308568,17.8466644 116.711907,17.1966709 116.278572,16.35 C115.845236,15.5033291 115.628572,14.5066724 115.628572,13.36 C115.628572,12.2133276 115.845236,11.2133376 116.278572,10.36 C116.711907,9.5066624 117.308568,8.8533356 118.068572,8.4 C118.828576,7.9466644 119.695234,7.72 120.668572,7.72 Z M121.188572,9.34 C120.068566,9.34 119.171909,9.6966631 118.498572,10.41 C117.825235,11.1233369 117.488572,12.1066604 117.488572,13.36 C117.488572,14.6133396 117.825235,15.5966631 118.498572,16.31 C119.171909,17.0233369 120.068566,17.38 121.188572,17.38 C121.908576,17.38 122.551902,17.213335 123.118572,16.88 C123.685241,16.546665 124.12857,16.0766697 124.448572,15.47 C124.768574,14.8633303 124.928572,14.160004 124.928572,13.36 C124.928572,12.559996 124.768574,11.8533364 124.448572,11.24 C124.12857,10.6266636 123.685241,10.1566683 123.118572,9.83 C122.551902,9.5033317 121.908576,9.34 121.188572,9.34 Z M135.785715,7.68 C137.065721,7.68 138.099044,8.0899959 138.885715,8.91 C139.672385,9.7300041 140.065715,10.9133256 140.065715,12.46 L140.065715,18.84 L138.245715,18.84 L138.245715,12.62 C138.245715,11.5266612 137.965718,10.6866696 137.405715,10.1 C136.845712,9.5133304 136.08572,9.22 135.125715,9.22 C134.12571,9.22 133.325718,9.5433301 132.725715,10.19 C132.125712,10.8366699 131.825715,11.7799938 131.825715,13.02 L131.825715,18.84 L130.005715,18.84 L130.005715,7.86 L131.825715,7.86 L131.825715,10.46 C132.105716,9.5666622 132.602378,8.8800024 133.315715,8.4 C134.029052,7.9199976 134.852377,7.68 135.785715,7.68 Z M149.242858,18.84 L145.042858,13.9 L145.042858,18.84 L143.222858,18.84 L143.222858,4.04 L145.042858,4.04 L145.042858,12.64 L149.182858,7.86 L151.402858,7.86 L146.482858,13.32 L151.522858,18.84 L149.242858,18.84 Z M156.920001,7.72 C158.160007,7.72 159.156664,8.0433301 159.910001,8.69 C160.663338,9.3366699 161.12,10.2066612 161.280001,11.3 L159.540001,11.3 C159.46,10.6466634 159.190003,10.1100021 158.730001,9.69 C158.269998,9.2699979 157.653338,9.06 156.880001,9.06 C156.226664,9.06 155.716669,9.2166651 155.350001,9.53 C154.983332,9.8433349 154.800001,10.266664 154.800001,10.8 C154.800001,11.200002 154.923333,11.5233321 155.170001,11.77 C155.416669,12.0166679 155.723332,12.2033327 156.090001,12.33 C156.456669,12.4566673 156.959997,12.5933326 157.600001,12.74 C158.413338,12.9266676 159.069998,13.1166657 159.570001,13.31 C160.070003,13.5033343 160.496666,13.8133312 160.850001,14.24 C161.203336,14.6666688 161.380001,15.2399964 161.380001,15.96 C161.380001,16.8533378 161.043337,17.5799972 160.370001,18.14 C159.696664,18.7000028 158.800006,18.98 157.680001,18.98 C156.373327,18.98 155.306671,18.6666698 154.480001,18.04 C153.65333,17.4133302 153.166668,16.5400056 153.020001,15.42 L154.780001,15.42 C154.846668,16.08667 155.136665,16.6266646 155.650001,17.04 C156.163337,17.4533354 156.839996,17.66 157.680001,17.66 C158.30667,17.66 158.796666,17.5000016 159.150001,17.18 C159.503336,16.8599984 159.680001,16.4400026 159.680001,15.92 C159.680001,15.4933312 159.553335,15.1533346 159.300001,14.9 C159.046666,14.6466654 158.733336,14.453334 158.360001,14.32 C157.986665,14.186666 157.473337,14.0466674 156.820001,13.9 C156.006663,13.7133324 155.35667,13.5266676 154.870001,13.34 C154.383332,13.1533324 153.970002,12.8566687 153.630001,12.45 C153.289999,12.0433313 153.120001,11.4933368 153.120001,10.8 C153.120001,9.8799954 153.459997,9.1366695 154.140001,8.57 C154.820004,8.0033305 155.746661,7.72 156.920001,7.72 Z" id="thanks" fill="#000000"></path>
                        <path d="M180.434286,3.06 C182.460963,3.06 184.194279,3.4299963 185.634286,4.17 C187.074294,4.9100037 188.167616,5.9599932 188.914286,7.32 C189.660957,8.6800068 190.034286,10.2733242 190.034286,12.1 C190.034286,13.3933398 189.807622,14.5699947 189.354286,15.63 C188.900951,16.6900053 188.29429,17.5233303 187.534286,18.13 C186.774283,18.7366697 185.954291,19.04 185.074286,19.04 C184.260949,19.04 183.624289,18.8300021 183.164286,18.41 C182.704284,17.9899979 182.500953,17.3066714 182.554286,16.36 C181.567615,18.1466756 180.134296,19.04 178.254286,19.04 C177.427616,19.04 176.690956,18.840002 176.044286,18.44 C175.397617,18.039998 174.894288,17.4766703 174.534286,16.75 C174.174285,16.0233297 173.994286,15.1800048 173.994286,14.22 C173.994286,12.9799938 174.254284,11.8633383 174.774286,10.87 C175.294289,9.8766617 176.004282,9.0966695 176.904286,8.53 C177.804291,7.9633305 178.807614,7.68 179.914286,7.68 C180.887625,7.68 181.727616,7.8733314 182.434286,8.26 C183.140957,8.6466686 183.677618,9.1799966 184.044286,9.86 C184.410955,10.5400034 184.594286,11.313329 184.594286,12.18 C184.594286,12.3933344 184.56762,12.7133312 184.514286,13.14 L184.074286,15.8 C184.04762,16.066668 184.034286,16.2399996 184.034286,16.32 C184.034286,16.7333354 184.134285,17.0233325 184.334286,17.19 C184.534287,17.3566675 184.820951,17.44 185.194286,17.44 C185.714289,17.44 186.204284,17.2300021 186.664286,16.81 C187.124289,16.3899979 187.490952,15.780004 187.764286,14.98 C188.037621,14.179996 188.174286,13.2400054 188.174286,12.16 C188.174286,10.6399924 187.867623,9.313339 187.254286,8.18 C186.64095,7.046661 185.737626,6.1633365 184.544286,5.53 C183.350947,4.8966635 181.900962,4.58 180.194286,4.58 C178.234277,4.58 176.544294,5.0033291 175.124286,5.85 C173.704279,6.6966709 172.62429,7.8499927 171.884286,9.31 C171.144283,10.7700073 170.774286,12.4066576 170.774286,14.22 C170.774286,16.88668 171.524279,18.9166597 173.024286,20.31 C174.524294,21.7033403 176.654273,22.4133332 179.414286,22.44 L179.074286,23.94 C175.87427,23.8866664 173.390962,23.0300083 171.624286,21.37 C169.857611,19.7099917 168.974286,17.3266822 168.974286,14.22 C168.974286,12.1133228 169.454282,10.2100085 170.414286,8.51 C171.374291,6.8099915 172.724278,5.4766715 174.464286,4.51 C176.204295,3.5433285 178.194275,3.06 180.434286,3.06 Z M178.814286,17.44 C179.53429,17.44 180.194283,17.2433353 180.794286,16.85 C181.394289,16.4566647 181.874285,15.8900037 182.234286,15.15 C182.594288,14.4099963 182.774286,13.5466716 182.774286,12.56 C182.774286,11.5466616 182.500956,10.7500029 181.954286,10.17 C181.407617,9.5899971 180.634291,9.3 179.634286,9.3 C178.900949,9.3 178.237623,9.4933314 177.644286,9.88 C177.05095,10.2666686 176.587621,10.8133298 176.254286,11.52 C175.920951,12.2266702 175.754286,13.046662 175.754286,13.98 C175.754286,15.0066718 176.034284,15.8399968 176.594286,16.48 C177.154289,17.1200032 177.894282,17.44 178.814286,17.44 Z M197.891429,17.24 L197.891429,18.84 L196.531429,18.84 C195.411424,18.84 194.574765,18.573336 194.021429,18.04 C193.468093,17.506664 193.191429,16.6133396 193.191429,15.36 L193.191429,9.44 L191.551429,9.44 L191.551429,7.86 L193.191429,7.86 L193.191429,5.12 L195.031429,5.12 L195.031429,7.86 L197.871429,7.86 L197.871429,9.44 L195.031429,9.44 L195.031429,15.4 C195.031429,16.1066702 195.161428,16.5899987 195.421429,16.85 C195.681431,17.1100013 196.131426,17.24 196.771429,17.24 L197.891429,17.24 Z M206.248572,7.68 C207.528579,7.68 208.561902,8.0899959 209.348572,8.91 C210.135243,9.7300041 210.528572,10.9133256 210.528572,12.46 L210.528572,18.84 L208.708572,18.84 L208.708572,12.62 C208.708572,11.5266612 208.428575,10.6866696 207.868572,10.1 C207.308569,9.5133304 206.548577,9.22 205.588572,9.22 C204.588567,9.22 203.788575,9.5433301 203.188572,10.19 C202.588569,10.8366699 202.288572,11.7799938 202.288572,13.02 L202.288572,18.84 L200.468572,18.84 L200.468572,4.04 L202.288572,4.04 L202.288572,10.46 C202.568574,9.5666622 203.065235,8.8800024 203.778572,8.4 C204.491909,7.9199976 205.315234,7.68 206.248572,7.68 Z M218.185715,7.72 C219.252387,7.72 220.155711,7.986664 220.895715,8.52 C221.635719,9.053336 222.15238,9.7666622 222.445715,10.66 L222.445715,7.86 L224.265715,7.86 L224.265715,18.84 L222.445715,18.84 L222.445715,16.04 C222.15238,16.9333378 221.635719,17.646664 220.895715,18.18 C220.155711,18.713336 219.252387,18.98 218.185715,18.98 C217.212377,18.98 216.345719,18.7533356 215.585715,18.3 C214.825711,17.8466644 214.229051,17.1966709 213.795715,16.35 C213.36238,15.5033291 213.145715,14.5066724 213.145715,13.36 C213.145715,12.2133276 213.36238,11.2133376 213.795715,10.36 C214.229051,9.5066624 214.825711,8.8533356 215.585715,8.4 C216.345719,7.9466644 217.212377,7.72 218.185715,7.72 Z M218.705715,9.34 C217.58571,9.34 216.689052,9.6966631 216.015715,10.41 C215.342378,11.1233369 215.005715,12.1066604 215.005715,13.36 C215.005715,14.6133396 215.342378,15.5966631 216.015715,16.31 C216.689052,17.0233369 217.58571,17.38 218.705715,17.38 C219.425719,17.38 220.069046,17.213335 220.635715,16.88 C221.202385,16.546665 221.645714,16.0766697 221.965715,15.47 C222.285717,14.8633303 222.445715,14.160004 222.445715,13.36 C222.445715,12.559996 222.285717,11.8533364 221.965715,11.24 C221.645714,10.6266636 221.202385,10.1566683 220.635715,9.83 C220.069046,9.5033317 219.425719,9.34 218.705715,9.34 Z M233.302858,7.68 C234.582864,7.68 235.616187,8.0899959 236.402858,8.91 C237.189529,9.7300041 237.582858,10.9133256 237.582858,12.46 L237.582858,18.84 L235.762858,18.84 L235.762858,12.62 C235.762858,11.5266612 235.482861,10.6866696 234.922858,10.1 C234.362855,9.5133304 233.602863,9.22 232.642858,9.22 C231.642853,9.22 230.842861,9.5433301 230.242858,10.19 C229.642855,10.8366699 229.342858,11.7799938 229.342858,13.02 L229.342858,18.84 L227.522858,18.84 L227.522858,7.86 L229.342858,7.86 L229.342858,10.46 C229.622859,9.5666622 230.119521,8.8800024 230.832858,8.4 C231.546195,7.9199976 232.36952,7.68 233.302858,7.68 Z M246.760001,18.84 L242.560001,13.9 L242.560001,18.84 L240.740001,18.84 L240.740001,4.04 L242.560001,4.04 L242.560001,12.64 L246.700001,7.86 L248.920001,7.86 L244.000001,13.32 L249.040001,18.84 L246.760001,18.84 Z M254.437144,7.72 C255.67715,7.72 256.673807,8.0433301 257.427144,8.69 C258.180481,9.3366699 258.637143,10.2066612 258.797144,11.3 L257.057144,11.3 C256.977143,10.6466634 256.707146,10.1100021 256.247144,9.69 C255.787142,9.2699979 255.170481,9.06 254.397144,9.06 C253.743807,9.06 253.233812,9.2166651 252.867144,9.53 C252.500475,9.8433349 252.317144,10.266664 252.317144,10.8 C252.317144,11.200002 252.440476,11.5233321 252.687144,11.77 C252.933812,12.0166679 253.240475,12.2033327 253.607144,12.33 C253.973812,12.4566673 254.477141,12.5933326 255.117144,12.74 C255.930481,12.9266676 256.587141,13.1166657 257.087144,13.31 C257.587146,13.5033343 258.013809,13.8133312 258.367144,14.24 C258.720479,14.6666688 258.897144,15.2399964 258.897144,15.96 C258.897144,16.8533378 258.560481,17.5799972 257.887144,18.14 C257.213807,18.7000028 256.317149,18.98 255.197144,18.98 C253.890471,18.98 252.823815,18.6666698 251.997144,18.04 C251.170473,17.4133302 250.683811,16.5400056 250.537144,15.42 L252.297144,15.42 C252.363811,16.08667 252.653808,16.6266646 253.167144,17.04 C253.68048,17.4533354 254.35714,17.66 255.197144,17.66 C255.823814,17.66 256.313809,17.5000016 256.667144,17.18 C257.020479,16.8599984 257.197144,16.4400026 257.197144,15.92 C257.197144,15.4933312 257.070478,15.1533346 256.817144,14.9 C256.563809,14.6466654 256.250479,14.453334 255.877144,14.32 C255.503809,14.186666 254.99048,14.0466674 254.337144,13.9 C253.523806,13.7133324 252.873813,13.5266676 252.387144,13.34 C251.900475,13.1533324 251.487146,12.8566687 251.147144,12.45 C250.807142,12.0433313 250.637144,11.4933368 250.637144,10.8 C250.637144,9.8799954 250.97714,9.1366695 251.657144,8.57 C252.337147,8.0033305 253.263805,7.72 254.437144,7.72 Z M262.454287,7.86 L266.014287,16.5 L269.314287,7.86 L271.334287,7.86 L264.814287,24.04 L262.754287,24.04 L265.034287,18.66 L260.414287,7.86 L262.454287,7.86 Z M279.59143,10.74 L279.59143,12.28 L271.59143,12.28 L271.59143,10.74 L279.59143,10.74 Z M288.768573,17.24 L288.768573,18.84 L287.408573,18.84 C286.288567,18.84 285.451909,18.573336 284.898573,18.04 C284.345236,17.506664 284.068573,16.6133396 284.068573,15.36 L284.068573,9.44 L282.428573,9.44 L282.428573,7.86 L284.068573,7.86 L284.068573,5.12 L285.908573,5.12 L285.908573,7.86 L288.748573,7.86 L288.748573,9.44 L285.908573,9.44 L285.908573,15.4 C285.908573,16.1066702 286.038571,16.5899987 286.298573,16.85 C286.558574,17.1100013 287.008569,17.24 287.648573,17.24 L288.768573,17.24 Z M301.445715,12.74 C301.445715,13.1266686 301.419049,13.4599986 301.365715,13.74 L292.585715,13.74 C292.625716,14.9933396 292.982379,15.9333302 293.655715,16.56 C294.329052,17.1866698 295.152377,17.5 296.125715,17.5 C297.00572,17.5 297.742379,17.2766689 298.335715,16.83 C298.929052,16.3833311 299.292381,15.7866704 299.425715,15.04 L301.365715,15.04 C301.232381,15.8000038 300.935718,16.479997 300.475715,17.08 C300.015713,17.680003 299.419052,18.146665 298.685715,18.48 C297.952378,18.813335 297.12572,18.98 296.205715,18.98 C295.152377,18.98 294.219053,18.7533356 293.405715,18.3 C292.592378,17.8466644 291.955718,17.1966709 291.495715,16.35 C291.035713,15.5033291 290.805715,14.5066724 290.805715,13.36 C290.805715,12.2133276 291.035713,11.2133376 291.495715,10.36 C291.955718,9.5066624 292.592378,8.8533356 293.405715,8.4 C294.219053,7.9466644 295.152377,7.72 296.205715,7.72 C297.272387,7.72 298.202378,7.9466644 298.995715,8.4 C299.789053,8.8533356 300.395713,9.4599962 300.815715,10.22 C301.235718,10.9800038 301.445715,11.8199954 301.445715,12.74 Z M299.605715,12.86 C299.645716,12.0466626 299.512384,11.3666694 299.205715,10.82 C298.899047,10.2733306 298.479051,9.866668 297.945715,9.6 C297.412379,9.333332 296.832385,9.2 296.205715,9.2 C295.20571,9.2 294.365719,9.5099969 293.685715,10.13 C293.005712,10.7500031 292.639049,11.659994 292.585715,12.86 L299.605715,12.86 Z M308.682858,7.72 C309.74953,7.72 310.652855,7.986664 311.392858,8.52 C312.132862,9.053336 312.649524,9.7666622 312.942858,10.66 L312.942858,7.86 L314.762858,7.86 L314.762858,18.84 L312.942858,18.84 L312.942858,16.04 C312.649524,16.9333378 312.132862,17.646664 311.392858,18.18 C310.652855,18.713336 309.74953,18.98 308.682858,18.98 C307.70952,18.98 306.842862,18.7533356 306.082858,18.3 C305.322855,17.8466644 304.726194,17.1966709 304.292858,16.35 C303.859523,15.5033291 303.642858,14.5066724 303.642858,13.36 C303.642858,12.2133276 303.859523,11.2133376 304.292858,10.36 C304.726194,9.5066624 305.322855,8.8533356 306.082858,8.4 C306.842862,7.9466644 307.70952,7.72 308.682858,7.72 Z M309.202858,9.34 C308.082853,9.34 307.186195,9.6966631 306.512858,10.41 C305.839522,11.1233369 305.502858,12.1066604 305.502858,13.36 C305.502858,14.6133396 305.839522,15.5966631 306.512858,16.31 C307.186195,17.0233369 308.082853,17.38 309.202858,17.38 C309.922862,17.38 310.566189,17.213335 311.132858,16.88 C311.699528,16.546665 312.142857,16.0766697 312.462858,15.47 C312.78286,14.8633303 312.942858,14.160004 312.942858,13.36 C312.942858,12.559996 312.78286,11.8533364 312.462858,11.24 C312.142857,10.6266636 311.699528,10.1566683 311.132858,9.83 C310.566189,9.5033317 309.922862,9.34 309.202858,9.34 Z M331.520001,7.68 C332.800008,7.68 333.829997,8.0899959 334.610001,8.91 C335.390005,9.7300041 335.780001,10.9133256 335.780001,12.46 L335.780001,18.84 L333.960001,18.84 L333.960001,12.62 C333.960001,11.5399946 333.696671,10.7133362 333.170001,10.14 C332.643332,9.5666638 331.920006,9.28 331.000001,9.28 C330.039996,9.28 329.270004,9.5966635 328.690001,10.23 C328.109998,10.8633365 327.820001,11.7933272 327.820001,13.02 L327.820001,18.84 L326.000001,18.84 L326.000001,12.62 C326.000001,11.5399946 325.733337,10.7133362 325.200001,10.14 C324.666665,9.5666638 323.946672,9.28 323.040001,9.28 C322.066663,9.28 321.290004,9.5966635 320.710001,10.23 C320.129998,10.8633365 319.840001,11.7933272 319.840001,13.02 L319.840001,18.84 L318.020001,18.84 L318.020001,7.86 L319.840001,7.86 L319.840001,10.36 C320.106669,9.493329 320.583331,8.8300023 321.270001,8.37 C321.956671,7.9099977 322.746663,7.68 323.640001,7.68 C324.573339,7.68 325.383331,7.9166643 326.070001,8.39 C326.756671,8.8633357 327.246666,9.5599954 327.540001,10.48 C327.846669,9.5866622 328.359998,8.8966691 329.080001,8.41 C329.800005,7.9233309 330.61333,7.68 331.520001,7.68 Z" id="@thanksy-team" fill="#245CBC"></path>
                        <path d="M349.114287,5.26 C348.140949,5.2466666 347.464289,5.4133316 347.084287,5.76 C346.704285,6.1066684 346.514287,6.7066624 346.514287,7.56 L346.514287,7.86 L349.114287,7.86 L349.114287,9.46 L346.514287,9.46 L346.514287,18.84 L344.694287,18.84 L344.694287,9.46 L343.114287,9.46 L343.114287,7.86 L344.694287,7.86 L344.694287,7.42 C344.694287,4.7933202 346.167606,3.5399994 349.114287,3.66 L349.114287,5.26 Z M356.43143,7.72 C357.484769,7.72 358.428092,7.9466644 359.26143,8.4 C360.094767,8.8533356 360.748094,9.5066624 361.22143,10.36 C361.694766,11.2133376 361.93143,12.2133276 361.93143,13.36 C361.93143,14.5066724 361.694766,15.5033291 361.22143,16.35 C360.748094,17.1966709 360.094767,17.8466644 359.26143,18.3 C358.428092,18.7533356 357.484769,18.98 356.43143,18.98 C355.378091,18.98 354.434767,18.7533356 353.60143,18.3 C352.768092,17.8466644 352.111432,17.1966709 351.63143,16.35 C351.151428,15.5033291 350.91143,14.5066724 350.91143,13.36 C350.91143,12.2133276 351.151428,11.2133376 351.63143,10.36 C352.111432,9.5066624 352.768092,8.8533356 353.60143,8.4 C354.434767,7.9466644 355.378091,7.72 356.43143,7.72 Z M356.43143,9.32 C355.778093,9.32 355.174766,9.4666652 354.62143,9.76 C354.068094,10.0533348 353.621432,10.5033303 353.28143,11.11 C352.941428,11.7166697 352.77143,12.4666622 352.77143,13.36 C352.77143,14.2400044 352.941428,14.9833303 353.28143,15.59 C353.621432,16.1966697 354.068094,16.6466652 354.62143,16.94 C355.174766,17.2333348 355.778093,17.38 356.43143,17.38 C357.084767,17.38 357.688094,17.2333348 358.24143,16.94 C358.794766,16.6466652 359.241428,16.1966697 359.58143,15.59 C359.921432,14.9833303 360.09143,14.2400044 360.09143,13.36 C360.09143,12.4666622 359.921432,11.7166697 359.58143,11.11 C359.241428,10.5033303 358.794766,10.0533348 358.24143,9.76 C357.688094,9.4666652 357.084767,9.32 356.43143,9.32 Z M366.488573,10.08 C366.848575,9.3199962 367.375236,8.7300021 368.068573,8.31 C368.76191,7.8899979 369.588568,7.68 370.548573,7.68 L370.548573,9.66 L369.988573,9.66 C368.961901,9.66 368.121909,9.9233307 367.468573,10.45 C366.815236,10.9766693 366.488573,11.8466606 366.488573,13.06 L366.488573,18.84 L364.668573,18.84 L364.668573,7.86 L366.488573,7.86 L366.488573,10.08 Z M382.502859,7.72 C383.569531,7.72 384.472855,7.986664 385.212859,8.52 C385.952862,9.053336 386.469524,9.7666622 386.762859,10.66 L386.762859,7.86 L388.582859,7.86 L388.582859,18.84 L386.762859,18.84 L386.762859,16.04 C386.469524,16.9333378 385.952862,17.646664 385.212859,18.18 C384.472855,18.713336 383.569531,18.98 382.502859,18.98 C381.52952,18.98 380.662862,18.7533356 379.902859,18.3 C379.142855,17.8466644 378.546194,17.1966709 378.112859,16.35 C377.679523,15.5033291 377.462859,14.5066724 377.462859,13.36 C377.462859,12.2133276 377.679523,11.2133376 378.112859,10.36 C378.546194,9.5066624 379.142855,8.8533356 379.902859,8.4 C380.662862,7.9466644 381.52952,7.72 382.502859,7.72 Z M383.022859,9.34 C381.902853,9.34 381.006195,9.6966631 380.332859,10.41 C379.659522,11.1233369 379.322859,12.1066604 379.322859,13.36 C379.322859,14.6133396 379.659522,15.5966631 380.332859,16.31 C381.006195,17.0233369 381.902853,17.38 383.022859,17.38 C383.742862,17.38 384.386189,17.213335 384.952859,16.88 C385.519528,16.546665 385.962857,16.0766697 386.282859,15.47 C386.60286,14.8633303 386.762859,14.160004 386.762859,13.36 C386.762859,12.559996 386.60286,11.8533364 386.282859,11.24 C385.962857,10.6266636 385.519528,10.1566683 384.952859,9.83 C384.386189,9.5033317 383.742862,9.34 383.022859,9.34 Z M393.660002,4.04 L393.660002,18.84 L391.840002,18.84 L391.840002,4.04 L393.660002,4.04 Z M398.757144,4.04 L398.757144,18.84 L396.937144,18.84 L396.937144,4.04 L398.757144,4.04 Z M412.57143,17.24 L412.57143,18.84 L411.21143,18.84 C410.091425,18.84 409.254766,18.573336 408.70143,18.04 C408.148094,17.506664 407.87143,16.6133396 407.87143,15.36 L407.87143,9.44 L406.23143,9.44 L406.23143,7.86 L407.87143,7.86 L407.87143,5.12 L409.71143,5.12 L409.71143,7.86 L412.55143,7.86 L412.55143,9.44 L409.71143,9.44 L409.71143,15.4 C409.71143,16.1066702 409.841429,16.5899987 410.10143,16.85 C410.361432,17.1100013 410.811427,17.24 411.45143,17.24 L412.57143,17.24 Z M420.928573,7.68 C422.20858,7.68 423.241903,8.0899959 424.028573,8.91 C424.815244,9.7300041 425.208573,10.9133256 425.208573,12.46 L425.208573,18.84 L423.388573,18.84 L423.388573,12.62 C423.388573,11.5266612 423.108576,10.6866696 422.548573,10.1 C421.98857,9.5133304 421.228578,9.22 420.268573,9.22 C419.268568,9.22 418.468576,9.5433301 417.868573,10.19 C417.26857,10.8366699 416.968573,11.7799938 416.968573,13.02 L416.968573,18.84 L415.148573,18.84 L415.148573,4.04 L416.968573,4.04 L416.968573,10.46 C417.248575,9.5666622 417.745236,8.8800024 418.458573,8.4 C419.17191,7.9199976 419.995235,7.68 420.928573,7.68 Z M438.465716,12.74 C438.465716,13.1266686 438.43905,13.4599986 438.385716,13.74 L429.605716,13.74 C429.645716,14.9933396 430.002379,15.9333302 430.675716,16.56 C431.349053,17.1866698 432.172378,17.5 433.145716,17.5 C434.02572,17.5 434.76238,17.2766689 435.355716,16.83 C435.949052,16.3833311 436.312382,15.7866704 436.445716,15.04 L438.385716,15.04 C438.252382,15.8000038 437.955718,16.479997 437.495716,17.08 C437.035714,17.680003 436.439053,18.146665 435.705716,18.48 C434.972379,18.813335 434.145721,18.98 433.225716,18.98 C432.172377,18.98 431.239053,18.7533356 430.425716,18.3 C429.612379,17.8466644 428.975718,17.1966709 428.515716,16.35 C428.055714,15.5033291 427.825716,14.5066724 427.825716,13.36 C427.825716,12.2133276 428.055714,11.2133376 428.515716,10.36 C428.975718,9.5066624 429.612379,8.8533356 430.425716,8.4 C431.239053,7.9466644 432.172377,7.72 433.225716,7.72 C434.292388,7.72 435.222379,7.9466644 436.015716,8.4 C436.809053,8.8533356 437.415714,9.4599962 437.835716,10.22 C438.255718,10.9800038 438.465716,11.8199954 438.465716,12.74 Z M436.625716,12.86 C436.665716,12.0466626 436.532384,11.3666694 436.225716,10.82 C435.919048,10.2733306 435.499052,9.866668 434.965716,9.6 C434.43238,9.333332 433.852386,9.2 433.225716,9.2 C432.225711,9.2 431.385719,9.5099969 430.705716,10.13 C430.025713,10.7500031 429.65905,11.659994 429.605716,12.86 L436.625716,12.86 Z M461.580002,7.86 L458.420002,18.84 L456.460002,18.84 L453.440002,9.9 L450.400002,18.84 L448.420002,18.84 L445.300002,7.86 L447.140002,7.86 L449.480002,17.1 L452.520002,7.86 L454.420002,7.86 L457.480002,17.08 L459.840002,7.86 L461.580002,7.86 Z M468.617145,7.72 C469.670483,7.72 470.613807,7.9466644 471.447145,8.4 C472.280482,8.8533356 472.933809,9.5066624 473.407145,10.36 C473.88048,11.2133376 474.117145,12.2133276 474.117145,13.36 C474.117145,14.5066724 473.88048,15.5033291 473.407145,16.35 C472.933809,17.1966709 472.280482,17.8466644 471.447145,18.3 C470.613807,18.7533356 469.670483,18.98 468.617145,18.98 C467.563806,18.98 466.620482,18.7533356 465.787145,18.3 C464.953807,17.8466644 464.297147,17.1966709 463.817145,16.35 C463.337142,15.5033291 463.097145,14.5066724 463.097145,13.36 C463.097145,12.2133276 463.337142,11.2133376 463.817145,10.36 C464.297147,9.5066624 464.953807,8.8533356 465.787145,8.4 C466.620482,7.9466644 467.563806,7.72 468.617145,7.72 Z M468.617145,9.32 C467.963808,9.32 467.360481,9.4666652 466.807145,9.76 C466.253809,10.0533348 465.807146,10.5033303 465.467145,11.11 C465.127143,11.7166697 464.957145,12.4666622 464.957145,13.36 C464.957145,14.2400044 465.127143,14.9833303 465.467145,15.59 C465.807146,16.1966697 466.253809,16.6466652 466.807145,16.94 C467.360481,17.2333348 467.963808,17.38 468.617145,17.38 C469.270481,17.38 469.873809,17.2333348 470.427145,16.94 C470.980481,16.6466652 471.427143,16.1966697 471.767145,15.59 C472.107146,14.9833303 472.277145,14.2400044 472.277145,13.36 C472.277145,12.4666622 472.107146,11.7166697 471.767145,11.11 C471.427143,10.5033303 470.980481,10.0533348 470.427145,9.76 C469.873809,9.4666652 469.270481,9.32 468.617145,9.32 Z M478.674288,10.08 C479.034289,9.3199962 479.560951,8.7300021 480.254288,8.31 C480.947624,7.8899979 481.774283,7.68 482.734288,7.68 L482.734288,9.66 L482.174288,9.66 C481.147616,9.66 480.307624,9.9233307 479.654288,10.45 C479.000951,10.9766693 478.674288,11.8466606 478.674288,13.06 L478.674288,18.84 L476.854288,18.84 L476.854288,7.86 L478.674288,7.86 L478.674288,10.08 Z M490.911431,18.84 L486.711431,13.9 L486.711431,18.84 L484.891431,18.84 L484.891431,4.04 L486.711431,4.04 L486.711431,12.64 L490.851431,7.86 L493.071431,7.86 L488.151431,13.32 L493.191431,18.84 L490.911431,18.84 Z" id="forallthework" fill="#000000"></path>
                    </g>
                    <g id="keyboard-return" transform="translate(601.000000, 37.000000)" stroke="#000000" stroke-linecap="round" stroke-linejoin="round" stroke-width="1.5">
                        <path d="M0.75,6.75 L15.75,6.75 C16.5784271,6.75 17.25,6.07842712 17.25,5.25 L17.25,0.75" id="Path"></path>
                        <polyline id="Path" points="5.25 2.2455 0.75 6.7455 5.25 11.2455"></polyline>
                    </g>
                </g>
            </g>
        </g>
    </g>
</svg>