<?xml version="1.0" encoding="UTF-8"?>
<svg width="125px" height="32px" viewBox="0 0 125 32" version="1.1" xmlns="http://www.w3.org/2000/svg" xmlns:xlink="http://www.w3.org/1999/xlink">
    <!-- Generator: Sketch 53 (72520) - https://sketchapp.com -->
    <title>Slack RGB</title>
    <desc>Created with Sketch.</desc>
    <g id="Landing-page" stroke="none" stroke-width="1" fill="none" fill-rule="evenodd">
        <g id="Artboard-Copy-2" transform="translate(-227.000000, -1872.000000)" fill-rule="nonzero">
            <g id="section-1" transform="translate(40.000000, 1544.000000)">
                <g id="Group-17" transform="translate(187.000000, 284.000000)">
                    <g id="Slack-RGB" transform="translate(0.000000, 44.000000)">
                        <g id="Group" transform="translate(39.909639, 0.503937)" fill="#000000">
                            <path d="M0.125502008,24.5669291 L1.68172691,20.9385827 C3.36345382,22.1984252 5.59738956,22.8535433 7.8062249,22.8535433 C9.437751,22.8535433 10.4668675,22.223622 10.4668675,21.2661417 C10.4417671,18.5952756 0.702811245,20.6866142 0.62751004,13.984252 C0.602409639,10.5826772 3.61445783,7.96220472 7.8815261,7.96220472 C10.4166667,7.96220472 12.9518072,8.59212598 14.7590361,10.0283465 L13.3032129,13.7322835 C11.6465863,12.6740157 9.58835341,11.9181102 7.63052209,11.9181102 C6.3002008,11.9181102 5.42168675,12.5480315 5.42168675,13.3543307 C5.44678715,15.9748031 15.2610442,14.5385827 15.3614458,20.9385827 C15.3614458,24.415748 12.4246988,26.8598425 8.20783133,26.8598425 C5.12048193,26.8598425 2.28413655,26.1291339 0.125502008,24.5669291" id="Path"></path>
                            <path d="M59.8393574,19.6283465 C59.061245,20.9889764 57.6054217,21.9212598 55.9236948,21.9212598 C53.438755,21.9212598 51.4307229,19.9055118 51.4307229,17.4110236 C51.4307229,14.9165354 53.438755,12.9007874 55.9236948,12.9007874 C57.6054217,12.9007874 59.061245,13.8330709 59.8393574,15.1937008 L64.1315261,12.8 C62.5251004,9.92755906 59.437751,7.96220472 55.9236948,7.96220472 C50.7279116,7.96220472 46.5110442,12.1952756 46.5110442,17.4110236 C46.5110442,22.6267717 50.7279116,26.8598425 55.9236948,26.8598425 C59.4628514,26.8598425 62.5251004,24.919685 64.1315261,22.0220472 L59.8393574,19.6283465 Z" id="Path"></path>
                            <rect id="Rectangle" x="17.5200803" y="0.125984252" width="5.37148594" height="26.3811024"></rect>
                            <polygon id="Path" points="66.2399598 0.125984252 66.2399598 26.5070866 71.6114458 26.5070866 71.6114458 18.5952756 77.9869478 26.5070866 84.8644578 26.5070866 76.7570281 17.1086614 84.2620482 8.34015748 77.685743 8.34015748 71.6114458 15.6220472 71.6114458 0.125984252"></polygon>
                            <path d="M38.8554217,19.6787402 C38.0773092,20.9637795 36.4708835,21.9212598 34.6636546,21.9212598 C32.1787149,21.9212598 30.1706827,19.9055118 30.1706827,17.4110236 C30.1706827,14.9165354 32.1787149,12.9007874 34.6636546,12.9007874 C36.4708835,12.9007874 38.0773092,13.9086614 38.8554217,15.2188976 L38.8554217,19.6787402 Z M38.8554217,8.34015748 L38.8554217,10.4818898 C37.9769076,8.99527559 35.7931727,7.96220472 33.5090361,7.96220472 C28.7901606,7.96220472 25.0753012,12.1448819 25.0753012,17.3858268 C25.0753012,22.6267717 28.7901606,26.8598425 33.5090361,26.8598425 C35.7931727,26.8598425 37.9769076,25.8267717 38.8554217,24.3401575 L38.8554217,26.4818898 L44.2269076,26.4818898 L44.2269076,8.34015748 L38.8554217,8.34015748 Z" id="Shape"></path>
                        </g>
                        <g id="Group">
                            <g transform="translate(0.000000, 16.629921)" fill="#E01E5A" id="Path">
                                <path d="M6.82730924,3.52755906 C6.82730924,5.36692913 5.34638554,6.85354331 3.51405622,6.85354331 C1.68172691,6.85354331 0.200803213,5.36692913 0.200803213,3.52755906 C0.200803213,1.68818898 1.68172691,0.201574803 3.51405622,0.201574803 L6.82730924,0.201574803 L6.82730924,3.52755906 Z"></path>
                                <path d="M8.48393574,3.52755906 C8.48393574,1.68818898 9.96485944,0.201574803 11.7971888,0.201574803 C13.6295181,0.201574803 15.1104418,1.68818898 15.1104418,3.52755906 L15.1104418,11.8425197 C15.1104418,13.6818898 13.6295181,15.1685039 11.7971888,15.1685039 C9.96485944,15.1685039 8.48393574,13.6818898 8.48393574,11.8425197 L8.48393574,3.52755906 Z"></path>
                            </g>
                            <g fill="#36C5F0" id="Path">
                                <path d="M11.7971888,6.80314961 C9.96485944,6.80314961 8.48393574,5.31653543 8.48393574,3.47716535 C8.48393574,1.63779528 9.96485944,0.151181102 11.7971888,0.151181102 C13.6295181,0.151181102 15.1104418,1.63779528 15.1104418,3.47716535 L15.1104418,6.80314961 L11.7971888,6.80314961 Z"></path>
                                <path d="M11.7971888,8.49133858 C13.6295181,8.49133858 15.1104418,9.97795276 15.1104418,11.8173228 C15.1104418,13.6566929 13.6295181,15.1433071 11.7971888,15.1433071 L3.48895582,15.1433071 C1.65662651,15.1433071 0.175702811,13.6566929 0.175702811,11.8173228 C0.175702811,9.97795276 1.65662651,8.49133858 3.48895582,8.49133858 L11.7971888,8.49133858 Z"></path>
                            </g>
                            <g transform="translate(16.566265, 0.000000)" fill="#2EB67D" id="Path">
                                <path d="M8.50903614,11.8173228 C8.50903614,9.97795276 9.98995984,8.49133858 11.8222892,8.49133858 C13.6546185,8.49133858 15.1355422,9.97795276 15.1355422,11.8173228 C15.1355422,13.6566929 13.6546185,15.1433071 11.8222892,15.1433071 L8.50903614,15.1433071 L8.50903614,11.8173228 Z"></path>
                                <path d="M6.85240964,11.8173228 C6.85240964,13.6566929 5.37148594,15.1433071 3.53915663,15.1433071 C1.70682731,15.1433071 0.225903614,13.6566929 0.225903614,11.8173228 L0.225903614,3.47716535 C0.225903614,1.63779528 1.70682731,0.151181102 3.53915663,0.151181102 C5.37148594,0.151181102 6.85240964,1.63779528 6.85240964,3.47716535 L6.85240964,11.8173228 Z"></path>
                            </g>
                            <g transform="translate(16.566265, 16.629921)" fill="#ECB22E" id="Path">
                                <path d="M3.53915663,8.51653543 C5.37148594,8.51653543 6.85240964,10.0031496 6.85240964,11.8425197 C6.85240964,13.6818898 5.37148594,15.1685039 3.53915663,15.1685039 C1.70682731,15.1685039 0.225903614,13.6818898 0.225903614,11.8425197 L0.225903614,8.51653543 L3.53915663,8.51653543 Z"></path>
                                <path d="M3.53915663,6.85354331 C1.70682731,6.85354331 0.225903614,5.36692913 0.225903614,3.52755906 C0.225903614,1.68818898 1.70682731,0.201574803 3.53915663,0.201574803 L11.8473896,0.201574803 C13.6797189,0.201574803 15.1606426,1.68818898 15.1606426,3.52755906 C15.1606426,5.36692913 13.6797189,6.85354331 11.8473896,6.85354331 L3.53915663,6.85354331 Z"></path>
                            </g>
                        </g>
                    </g>
                </g>
            </g>
        </g>
    </g>
</svg>