<?xml version="1.0" encoding="UTF-8"?>
<svg width="67px" height="62px" viewBox="0 0 67 62" version="1.1" xmlns="http://www.w3.org/2000/svg" xmlns:xlink="http://www.w3.org/1999/xlink">
    <!-- Generator: Sketch 53 (72520) - https://sketchapp.com -->
    <title>ico-confetti</title>
    <desc>Created with Sketch.</desc>
    <g id="Landing-page" stroke="none" stroke-width="1" fill="none" fill-rule="evenodd">
        <g id="Artboard-Copy-2" transform="translate(-506.000000, -2882.000000)" stroke="#000000" stroke-width="1.5">
            <g id="section-1" transform="translate(40.000000, 1544.000000)">
                <g id="icon-list" transform="translate(360.000000, 1331.000000)">
                    <g id="icon-1" transform="translate(0.000000, 8.000000)">
                        <g id="ico-confetti" transform="translate(108.000000, 0.000000)">
                            <circle id="Oval" cx="51.1111111" cy="37.1358025" r="2.37037037"></circle>
                            <path d="M10.492988,0.274879939 L11.5064432,2.62517187 L13.4786969,2.62517187 C13.682702,2.61746044 13.8696121,2.7385484 13.9459151,2.92785476 C14.0222181,3.11716112 13.9715056,3.33397717 13.8191493,3.46982861 L12.1070093,4.99455581 L13.0552714,7.17565306 C13.1406025,7.38020573 13.0859735,7.61638015 12.9194796,7.76271381 C12.7529857,7.90904748 12.5116984,7.93295781 12.3197097,7.82214793 L10.0280761,6.53113323 L7.73644249,7.82543966 C7.54445381,7.93624954 7.30316652,7.9123392 7.13667264,7.76600554 C6.97017875,7.61967188 6.91554971,7.38349745 7.00088077,7.17894479 L7.94914296,4.99784754 L6.2370029,3.47312034 C6.08416836,3.33781413 6.03284322,3.1211011 6.10876304,2.93164597 C6.18468286,2.74219085 6.37147584,2.62084887 6.57547982,2.6284636 L8.55102605,2.6284636 L9.56579829,0.278171664 C9.65715489,0.107503982 9.83479251,0.000690724651 10.0284109,3.33713982e-06 C10.2220293,-0.000684050371 10.4004213,0.104865224 10.492988,0.274879939 Z" id="Path" stroke-linecap="round" stroke-linejoin="round"></path>
                            <polyline id="Path-8" points="2.28127536 50.1728395 0 58.9581404 38.4810957 44.4699074"></polyline>
                            <path d="M7.55922068,25.2660108 C9.8591178,36.1653164 16.1940586,44.0229552 26.5640432,48.8389275" id="Path-10"></path>
                            <path d="M7.9968696,40.107829 C7.59872783,45.7727734 9.60530999,50.6214103 14.0166161,54.6537395" id="Path-11" transform="translate(10.982023, 47.380784) rotate(-20.000000) translate(-10.982023, -47.380784) "></path>
                            <path d="M14.5758102,13.7704475 C11.1979729,13.3646633 9.9341483,15.1682899 10.7843364,19.1813272 C11.5750386,22.9135802 14.3171603,27.5833807 21.0152392,34.2856867 C27.7133181,40.9879928 32.2045096,42.9973398 35.5426312,43.9552469 C40.4686857,45.3688272 42.1704604,43.095679 40.6479552,37.1358025" id="Path-9"></path>
                            <path d="M37.6790123,7.11111111 L30.5679012,14.2222222" id="Path" transform="translate(34.123457, 10.666667) rotate(30.000000) translate(-34.123457, -10.666667) "></path>
                            <path d="M30.5679012,7.11111111 L37.6790123,14.2222222" id="Path" transform="translate(34.123457, 10.666667) rotate(30.000000) translate(-34.123457, -10.666667) "></path>
                            <path d="M32.1481481,33.1851852 C40.8809877,25.8106996 55.0202468,25.8106996 63.7530864,33.1851852" id="Path"></path>
                            <path d="M18.7160494,26.0740741 C21.7513975,23.2456818 23.4567901,19.4085484 23.4567901,15.4074074 C23.4567901,11.4062664 21.7513975,7.569133 18.7160494,4.74074074" id="Path"></path>
                            <path d="M26.2615741,28.8395062 L49.5308642,13.4320988" id="Path-12"></path>
                        </g>
                    </g>
                </g>
            </g>
        </g>
    </g>
</svg>