<?xml version="1.0" encoding="UTF-8"?>
<svg width="26px" height="26px" viewBox="0 0 26 26" version="1.1" xmlns="http://www.w3.org/2000/svg" xmlns:xlink="http://www.w3.org/1999/xlink">
    <!-- Generator: Sketch 53 (72520) - https://sketchapp.com -->
    <title>Monogram</title>
    <desc>Created with Sketch.</desc>
    <g id="Landing-page" stroke="none" stroke-width="1" fill="none" fill-rule="evenodd">
        <g id="Artboard-Copy-2" transform="translate(-593.000000, -1389.000000)" fill-rule="nonzero">
            <g id="section-2" transform="translate(40.000000, 552.000000)">
                <g id="Group-15" transform="translate(533.000000, 817.000000)">
                    <g id="Group-19" transform="translate(19.500000, 19.000000)">
                        <g id="Monogram" transform="translate(0.500000, 1.000000)">
                            <rect id="Rectangle-path" fill="#12100E" x="0" y="0" width="26" height="26" rx="12.6750009"></rect>
                            <path d="M6.20454404,8.69543405 C6.22624504,8.48102096 6.14448,8.26909747 5.98437597,8.12478933 L4.3535014,6.16014109 L4.3535014,5.86666667 L9.41736695,5.86666667 L13.3314659,14.4507936 L16.7726113,5.86666667 L21.6,5.86666667 L21.6,6.16014109 L20.2056023,7.49708015 C20.0853899,7.58871303 20.0257584,7.73931816 20.0506692,7.88837939 L20.0506692,17.7116207 C20.0257584,17.8606819 20.0853899,18.0112869 20.2056023,18.1029199 L21.5673825,19.4398589 L21.5673825,19.7333333 L14.7177093,19.7333333 L14.7177093,19.4398589 L16.1284159,18.0703116 C16.2670401,17.9317264 16.2670401,17.8909661 16.2670401,17.6790124 L16.2670401,9.73889869 L12.3447868,19.7007251 L11.8147526,19.7007251 L7.24830376,9.73889869 L7.24830376,16.4154419 C7.21023037,16.6961425 7.30345599,16.9787467 7.50108932,17.1817363 L9.33582321,19.4072507 L9.33582321,19.7007251 L4.13333333,19.7007251 L4.13333333,19.4072507 L5.96806723,17.1817363 C6.16426161,16.9784101 6.25205117,16.6939313 6.20454404,16.4154419 L6.20454404,8.69543405 Z" id="Shape" fill="#FFFFFF"></path>
                        </g>
                    </g>
                </g>
            </g>
        </g>
    </g>
</svg>