<?xml version="1.0" encoding="UTF-8"?>
<svg width="63px" height="73px" viewBox="0 0 63 73" version="1.1" xmlns="http://www.w3.org/2000/svg" xmlns:xlink="http://www.w3.org/1999/xlink">
    <!-- Generator: Sketch 53 (72520) - https://sketchapp.com -->
    <title>ico-values</title>
    <desc>Created with Sketch.</desc>
    <g id="Landing-page" stroke="none" stroke-width="1" fill="none" fill-rule="evenodd" stroke-linecap="round" stroke-linejoin="round">
        <g id="Artboard-Copy-2" transform="translate(-869.000000, -3159.000000)" stroke="#000000" stroke-width="1.5">
            <g id="section-1" transform="translate(40.000000, 1544.000000)">
                <g id="icon-list" transform="translate(360.000000, 1331.000000)">
                    <g id="icon-4" transform="translate(360.000000, 285.000000)">
                        <g id="ico-values" transform="translate(110.000000, 0.000000)">
                            <ellipse id="Oval" cx="30.5" cy="35.5" rx="13.725" ry="34.7940341"></ellipse>
                            <path d="M38.2775,46.7188068 C22.31685,57.6108523 5.8987,61.4139915 1.5982,55.2176278 C-2.7023,49.0212642 6.76185,35.1732386 22.7225,24.2811932 C38.68315,13.3891477 55.1013,9.58903409 59.4018,15.7823722 C63.7023,21.9757102 54.23815,35.8267614 38.2775,46.7188068 Z" id="Path"></path>
                            <path d="M22.7225,46.7188068 C38.68315,57.6108523 55.1013,61.4139915 59.4018,55.2176278 C63.7023,49.0212642 54.23815,35.1732386 38.2775,24.2811932 C22.31685,13.3891477 5.8987,9.58903409 1.5982,15.7823722 C-2.7023,21.9757102 6.76185,35.8267614 22.7225,46.7188068 Z" id="Path"></path>
                            <path d="M31.3295201,40.1607835 C31.2189719,40.2758477 31.0661206,40.3409091 30.9063442,40.3409091 C30.7465677,40.3409091 30.5937165,40.2758477 30.4831683,40.1607835 L26.0544739,35.5469606 C25.1805798,34.6754896 24.9638426,33.3440036 25.5164192,32.2415178 L25.5164192,32.2415178 C25.9292304,31.4184004 26.7135391,30.843372 27.6243583,30.6960486 C28.5351776,30.5487252 29.4614761,30.8470658 30.113915,31.4978808 L30.9063442,32.2882874 L31.6987734,31.4978808 C32.3512122,30.8470658 33.2775108,30.5487252 34.18833,30.6960486 C35.0991493,30.843372 35.883458,31.4184004 36.2962692,32.2415178 L36.2962692,32.2415178 C36.8495221,33.3437022 36.6332246,34.6753879 35.7593867,35.5469606 L31.3295201,40.1607835 Z" id="Path"></path>
                        </g>
                    </g>
                </g>
            </g>
        </g>
    </g>
</svg>