<?xml version="1.0" encoding="UTF-8"?>
<svg width="69px" height="72px" viewBox="0 0 69 72" version="1.1" xmlns="http://www.w3.org/2000/svg" xmlns:xlink="http://www.w3.org/1999/xlink">
    <!-- Generator: Sketch 53 (72520) - https://sketchapp.com -->
    <title>ico-send</title>
    <desc>Created with Sketch.</desc>
    <g id="Landing-page" stroke="none" stroke-width="1" fill="none" fill-rule="evenodd" stroke-linecap="round" stroke-linejoin="round">
        <g id="Artboard-Copy-2" transform="translate(-865.000000, -2874.000000)" stroke="#000000" stroke-width="1.5">
            <g id="section-1" transform="translate(40.000000, 1544.000000)">
                <g id="icon-list" transform="translate(360.000000, 1331.000000)">
                    <g id="icon-2" transform="translate(360.000000, 0.000000)">
                        <g id="ico-send" transform="translate(106.500000, 0.000000)">
                            <path d="M51,8 L61.659,2.672 C62.5887074,2.2074236 63.6926376,2.25714384 64.576817,2.80341642 C65.4609965,3.34968901 65.9994451,4.31467968 66,5.354 L66,7.469 C65.9992237,8.69548159 65.2519514,9.79797548 64.113,10.253 L58.5,12.5 L60.36,13.742 C61.0463424,14.1990355 61.5143053,14.9184263 61.6539146,15.731111 C61.7935239,16.5437958 61.5924693,17.3781156 61.098,18.038 L59.4,20.3 C58.8334369,21.0554175 57.9442719,21.5 57,21.5" id="Path"></path>
                            <path d="M15,8 L4.341,2.672 C3.41129262,2.2074236 2.30736244,2.25714384 1.42318299,2.80341642 C0.539003534,3.34968901 0.000554878294,4.31467968 0,5.354 L0,7.469 C0.000776296927,8.69548159 0.748048558,9.79797548 1.887,10.253 L7.5,12.5 L5.64,13.742 C4.9536576,14.1990355 4.48569466,14.9184263 4.3460854,15.731111 C4.20647615,16.5437958 4.4075307,17.3781156 4.902,18.038 L6.6,20.3 C7.16656315,21.0554175 8.05572809,21.5 9,21.5" id="Path"></path>
                            <rect id="Rectangle" x="15" y="0.5" width="36" height="27" rx="3"></rect>
                            <path d="M16.008,1.256 L31.2,12.65 C32.2666667,13.45 33.7333333,13.45 34.8,12.65 L49.992,1.25" id="Path"></path>
                            <path d="M33,42.5 L33,69.5" id="Path"></path>
                            <path d="M24,36.5 L24,57.5" id="Path"></path>
                            <path d="M42,36.5 L42,57.5" id="Path"></path>
                        </g>
                    </g>
                </g>
            </g>
        </g>
    </g>
</svg>