<?xml version="1.0" encoding="UTF-8"?>
<svg width="57px" height="57px" viewBox="0 0 57 57" version="1.1" xmlns="http://www.w3.org/2000/svg" xmlns:xlink="http://www.w3.org/1999/xlink">
    <!-- Generator: Sketch 53 (72520) - https://sketchapp.com -->
    <title>ico-interaction</title>
    <desc>Created with Sketch.</desc>
    <g id="Landing-page" stroke="none" stroke-width="1" fill="none" fill-rule="evenodd" stroke-linecap="round" stroke-linejoin="round">
        <g id="Artboard-Copy-2" transform="translate(-507.000000, -3165.000000)" stroke="#000000" stroke-width="1.5">
            <g id="section-1" transform="translate(40.000000, 1544.000000)">
                <g id="icon-list" transform="translate(360.000000, 1331.000000)">
                    <g id="icon-3" transform="translate(0.000000, 291.000000)">
                        <g id="ico-interaction" transform="translate(108.000000, 0.000000)">
                            <path d="M14.3478261,12.3550725 L40.6521739,12.3550725" id="Path"></path>
                            <path d="M13.5507246,21.9202899 L27.1014493,21.9202899" id="Path"></path>
                            <path d="M31.0869565,33.8768116 L45.4347826,33.8768116" id="Path"></path>
                            <path d="M31.0869565,41.0507246 L45.4347826,41.0507246" id="Path"></path>
                            <path d="M14.3478261,31.4855072 L19.1304348,31.4855072" id="Path"></path>
                            <path d="M17.8654348,43.6296474 L2.06130435,51.0144928 L8.25,38.6119858 C3.18525288,34.8068862 0.143346684,28.8759706 0,22.5266594 C-1.8584168e-15,10.083339 12.3104348,0 27.5,0 C42.6895652,0 55,10.083339 55,22.5266594" id="Path"></path>
                            <path d="M21.5217391,38.0862438 C21.5217391,45.4704205 28.8371088,51.4599667 37.8623188,51.4599667 C39.8022936,51.4639037 41.7321016,51.1788606 43.5886263,50.6141601 L52.9785392,55 L49.3007246,47.6348301 C52.3098994,45.3762746 54.1174226,41.8555322 54.2028986,38.0862438 C54.2028986,30.6996911 46.8875289,24.7101449 37.8623188,24.7101449 C28.8371088,24.7101449 21.5217391,30.6996911 21.5217391,38.0862438 Z" id="Path"></path>
                        </g>
                    </g>
                </g>
            </g>
        </g>
    </g>
</svg>