<?xml version="1.0" encoding="UTF-8"?>
<svg width="152px" height="34px" viewBox="0 0 152 34" version="1.1" xmlns="http://www.w3.org/2000/svg" xmlns:xlink="http://www.w3.org/1999/xlink">
    <!-- Generator: Sketch 53 (72520) - https://sketchapp.com -->
    <title>logo</title>
    <desc>Created with Sketch.</desc>
    <g id="Landing-page" stroke="none" stroke-width="1" fill="none" fill-rule="evenodd">
        <g id="Artboard-Copy-2" transform="translate(-632.000000, -96.000000)" fill="#1D1E1F">
            <g id="section-hero" transform="translate(40.000000, 0.000000)">
                <g id="container" transform="translate(363.000000, 96.000000)">
                    <path d="M246.870453,1.15139442 L246.870453,4.94422311 L240.295475,4.94422311 L240.295475,25.059761 L235.54126,25.059761 L235.54126,4.94422311 L229,4.94422311 L229,1.15139442 L246.870453,1.15139442 Z M262.032239,6.02788845 C264.190191,6.02788845 265.909784,6.73903671 267.191068,8.16135458 C268.472352,9.58367245 269.112984,11.5816604 269.112984,14.1553785 L269.112984,25.059761 L264.392487,25.059761 L264.392487,14.6972112 C264.392487,13.2071639 264.010356,12.0501369 263.246081,11.2260956 C262.481806,10.4020543 261.436564,9.99003984 260.110322,9.99003984 C258.761602,9.99003984 257.682642,10.4302745 256.87341,11.310757 C256.064178,12.1912395 255.659568,13.455503 255.659568,15.1035857 L255.659568,25.059761 L250.905353,25.059761 L250.905353,0 L255.659568,0 L255.659568,10.0577689 C256.154099,8.79348637 256.968938,7.80578045 258.104111,7.09462151 C259.239284,6.38346258 260.548647,6.02788845 262.032239,6.02788845 Z M282.015676,6.06175299 C283.589183,6.06175299 284.937883,6.43425922 286.061816,7.17928287 C287.185749,7.92430651 287.98373,8.92894454 288.455782,10.1932271 L288.455782,6.29880478 L293.176279,6.29880478 L293.176279,25.059761 L288.455782,25.059761 L288.455782,21.1314741 C287.98373,22.3957567 287.185749,23.4060387 286.061816,24.1623506 C284.937883,24.9186625 283.589183,25.2968127 282.015676,25.2968127 C280.442169,25.2968127 279.026034,24.9130184 277.767229,24.1454183 C276.508423,23.3778182 275.524996,22.2659435 274.816918,20.809761 C274.10884,19.3535784 273.754806,17.6434361 273.754806,15.6792829 C273.754806,13.7151296 274.10884,12.0049874 274.816918,10.5488048 C275.524996,9.0926222 276.508423,7.98074753 277.767229,7.21314741 C279.026034,6.44554729 280.442169,6.06175299 282.015676,6.06175299 Z M283.499261,10.2270916 C282.015668,10.2270916 280.824317,10.7124785 279.92517,11.6832669 C279.026023,12.6540553 278.576457,13.9860473 278.576457,15.6792829 C278.576457,17.3725184 279.026023,18.6988664 279.92517,19.6583665 C280.824317,20.6178667 282.015668,21.0976096 283.499261,21.0976096 C284.937895,21.0976096 286.123627,20.6065786 287.056492,19.624502 C287.989357,18.6424254 288.455782,17.3273655 288.455782,15.6792829 C288.455782,14.0086238 287.989357,12.6822758 287.056492,11.7001992 C286.123627,10.7181226 284.937895,10.2270916 283.499261,10.2270916 Z M310.023957,6.02788845 C312.18191,6.02788845 313.901502,6.73903671 315.182786,8.16135458 C316.46407,9.58367245 317.104703,11.5816604 317.104703,14.1553785 L317.104703,25.059761 L312.384206,25.059761 L312.384206,14.6972112 C312.384206,13.2071639 312.002074,12.0501369 311.237799,11.2260956 C310.473525,10.4020543 309.428282,9.99003984 308.102041,9.99003984 C306.753321,9.99003984 305.674361,10.4302745 304.865129,11.310757 C304.055897,12.1912395 303.651287,13.455503 303.651287,15.1035857 L303.651287,25.059761 L298.897072,25.059761 L298.897072,6.29880478 L303.651287,6.29880478 L303.651287,10.0577689 C304.145817,8.79348637 304.960657,7.80578045 306.09583,7.09462151 C307.231002,6.38346258 308.540365,6.02788845 310.023957,6.02788845 Z M333.615203,25.059761 L327.444839,16.8645418 L327.444839,25.059761 L322.690624,25.059761 L322.690624,0 L327.444839,0 L327.444839,14.0876494 L333.581485,6.29880478 L339.212363,6.29880478 L331.356108,15.6454183 L339.41467,25.059761 L333.615203,25.059761 Z M349.552499,6.06175299 C351.822845,6.06175299 353.64359,6.63744444 355.014789,7.78884462 C356.385987,8.9402448 357.240164,10.475422 357.577344,12.3944223 L353.12659,12.3944223 C352.94676,11.4913633 352.54215,10.768927 351.912748,10.2270916 C351.283345,9.68525625 350.462886,9.41434263 349.451346,9.41434263 C348.642114,9.41434263 348.01272,9.60623978 347.563147,9.99003984 C347.113574,10.3738399 346.88879,10.893091 346.88879,11.5478088 C346.88879,12.0670677 347.068617,12.4847262 347.428276,12.8007968 C347.787934,13.1168675 348.237501,13.3652049 348.776989,13.5458167 C349.316477,13.7264285 350.09198,13.9409018 351.10352,14.189243 C352.519676,14.5053137 353.67169,14.8383117 354.559598,15.188247 C355.447505,15.5381824 356.211768,16.0912977 356.852411,16.8476096 C357.493053,17.6039214 357.813369,18.6254916 357.813369,19.9123506 C357.813369,21.5152803 357.189595,22.813408 355.942029,23.8067729 C354.694463,24.8001378 353.014208,25.2968127 350.901213,25.2968127 C348.473516,25.2968127 346.529141,24.7493415 345.068027,23.6543825 C343.606914,22.5594235 342.71902,20.9960261 342.404318,18.9641434 L346.956226,18.9641434 C347.068619,19.8897789 347.473229,20.6178592 348.170068,21.1484064 C348.866907,21.6789535 349.777279,21.9442231 350.901213,21.9442231 C351.710445,21.9442231 352.328599,21.7466819 352.755694,21.3515936 C353.182788,20.9565053 353.396332,20.4428982 353.396332,19.810757 C353.396332,19.2689216 353.210886,18.828687 352.839988,18.4900398 C352.46909,18.1513927 352.008284,17.8917672 351.457557,17.7111554 C350.90683,17.5305436 350.125708,17.3160703 349.114167,17.0677291 C347.72049,16.7516584 346.590954,16.4299485 345.725525,16.1025896 C344.860096,15.7752308 344.118311,15.2503356 343.500148,14.5278884 C342.881984,13.8054413 342.572907,12.8120913 342.572907,11.5478088 C342.572907,9.92230263 343.191062,8.60159871 344.427388,7.58565737 C345.663715,6.56971604 347.372068,6.06175299 349.552499,6.06175299 Z M365.961846,6.29880478 L371.053239,19.0318725 L375.773736,6.29880478 L381,6.29880478 L369.569654,34 L364.309672,34 L368.524401,24.5179283 L360.668146,6.29880478 L365.961846,6.29880478 Z" id="logo"></path>
                </g>
            </g>
        </g>
    </g>
</svg>